<mxfile host="app.diagrams.net" modified="2023-10-12T05:31:35.005Z" agent="Mozilla/5.0 (Windows NT 10.0; Win64; x64) AppleWebKit/537.36 (KHTML, like Gecko) Chrome/117.0.0.0 Safari/537.36" etag="PH4NjhHTlMVqkJB5XSTx" version="21.6.8" type="github">
  <diagram name="Page-1" id="d3Lysp2BPbErZ0NAtmpk">
    <mxGraphModel dx="1105" dy="562" grid="1" gridSize="10" guides="1" tooltips="1" connect="1" arrows="1" fold="1" page="1" pageScale="1" pageWidth="850" pageHeight="1100" math="0" shadow="0">
      <root>
        <mxCell id="0" />
        <mxCell id="1" parent="0" />
        <mxCell id="YeH8SXlZHnS6lYYfh2XQ-11" style="edgeStyle=orthogonalEdgeStyle;rounded=0;orthogonalLoop=1;jettySize=auto;html=1;exitX=1;exitY=0.5;exitDx=0;exitDy=0;" edge="1" parent="1" source="YeH8SXlZHnS6lYYfh2XQ-2" target="YeH8SXlZHnS6lYYfh2XQ-5">
          <mxGeometry relative="1" as="geometry" />
        </mxCell>
        <mxCell id="YeH8SXlZHnS6lYYfh2XQ-2" value="&lt;font style=&quot;font-size: 14px;&quot;&gt;CNN Model&lt;/font&gt;" style="rounded=1;whiteSpace=wrap;html=1;" vertex="1" parent="1">
          <mxGeometry x="350" y="130" width="120" height="60" as="geometry" />
        </mxCell>
        <mxCell id="YeH8SXlZHnS6lYYfh2XQ-8" style="edgeStyle=orthogonalEdgeStyle;rounded=0;orthogonalLoop=1;jettySize=auto;html=1;exitX=1;exitY=0.5;exitDx=0;exitDy=0;entryX=0;entryY=0.5;entryDx=0;entryDy=0;" edge="1" parent="1" source="YeH8SXlZHnS6lYYfh2XQ-3" target="YeH8SXlZHnS6lYYfh2XQ-4">
          <mxGeometry relative="1" as="geometry" />
        </mxCell>
        <mxCell id="YeH8SXlZHnS6lYYfh2XQ-3" value="&lt;font style=&quot;font-size: 14px;&quot;&gt;Dense layer , LN ,ReLU , Dropout&lt;/font&gt;" style="rounded=1;whiteSpace=wrap;html=1;" vertex="1" parent="1">
          <mxGeometry x="120" y="270" width="120" height="60" as="geometry" />
        </mxCell>
        <mxCell id="YeH8SXlZHnS6lYYfh2XQ-9" style="edgeStyle=orthogonalEdgeStyle;rounded=0;orthogonalLoop=1;jettySize=auto;html=1;exitX=1;exitY=0.5;exitDx=0;exitDy=0;entryX=0.591;entryY=1.037;entryDx=0;entryDy=0;entryPerimeter=0;" edge="1" parent="1" source="YeH8SXlZHnS6lYYfh2XQ-4" target="YeH8SXlZHnS6lYYfh2XQ-5">
          <mxGeometry relative="1" as="geometry" />
        </mxCell>
        <mxCell id="YeH8SXlZHnS6lYYfh2XQ-4" value="&lt;font style=&quot;font-size: 14px;&quot;&gt;Dense layer , LN,&lt;br&gt;ReLU , Dropout&lt;/font&gt;" style="rounded=1;whiteSpace=wrap;html=1;" vertex="1" parent="1">
          <mxGeometry x="320" y="270" width="120" height="60" as="geometry" />
        </mxCell>
        <mxCell id="YeH8SXlZHnS6lYYfh2XQ-12" value="" style="edgeStyle=orthogonalEdgeStyle;rounded=0;orthogonalLoop=1;jettySize=auto;html=1;" edge="1" parent="1" source="YeH8SXlZHnS6lYYfh2XQ-5" target="YeH8SXlZHnS6lYYfh2XQ-6">
          <mxGeometry relative="1" as="geometry" />
        </mxCell>
        <mxCell id="YeH8SXlZHnS6lYYfh2XQ-5" value="&lt;font style=&quot;font-size: 14px;&quot;&gt;Concat&lt;/font&gt;" style="rounded=1;whiteSpace=wrap;html=1;" vertex="1" parent="1">
          <mxGeometry x="460" y="210" width="80" height="40" as="geometry" />
        </mxCell>
        <mxCell id="YeH8SXlZHnS6lYYfh2XQ-13" value="" style="edgeStyle=orthogonalEdgeStyle;rounded=0;orthogonalLoop=1;jettySize=auto;html=1;" edge="1" parent="1" source="YeH8SXlZHnS6lYYfh2XQ-6" target="YeH8SXlZHnS6lYYfh2XQ-7">
          <mxGeometry relative="1" as="geometry" />
        </mxCell>
        <mxCell id="YeH8SXlZHnS6lYYfh2XQ-6" value="&lt;font style=&quot;font-size: 14px;&quot;&gt;Dense layer , LN,&lt;br&gt;ReLU , Dropout&lt;/font&gt;" style="rounded=1;whiteSpace=wrap;html=1;" vertex="1" parent="1">
          <mxGeometry x="560" y="200" width="120" height="60" as="geometry" />
        </mxCell>
        <mxCell id="YeH8SXlZHnS6lYYfh2XQ-7" value="&lt;font style=&quot;font-size: 14px;&quot;&gt;Classification Layer&lt;/font&gt;" style="rounded=1;whiteSpace=wrap;html=1;" vertex="1" parent="1">
          <mxGeometry x="710" y="200" width="120" height="60" as="geometry" />
        </mxCell>
        <mxCell id="YeH8SXlZHnS6lYYfh2XQ-17" value="" style="edgeStyle=orthogonalEdgeStyle;rounded=0;orthogonalLoop=1;jettySize=auto;html=1;" edge="1" parent="1" source="YeH8SXlZHnS6lYYfh2XQ-14" target="YeH8SXlZHnS6lYYfh2XQ-3">
          <mxGeometry relative="1" as="geometry" />
        </mxCell>
        <mxCell id="YeH8SXlZHnS6lYYfh2XQ-14" value="" style="shape=image;verticalLabelPosition=bottom;labelBackgroundColor=default;verticalAlign=top;aspect=fixed;imageAspect=0;image=data:image/png,iVBORw0KGgoAAAANSUhEUgAAAGwAAACMCAYAAACZIkxPAAAAAXNSR0IArs4c6QAAAARnQU1BAACxjwv8YQUAAAAJcEhZcwAAEnQAABJ0Ad5mH3gAAAwESURBVHhe7Z0LcBRFGsf/eZMQQkIIeUISnobwDi8PBBRBkQAniiCcpsQXVR4ieB5weqKelqdoUYKe1ImionUq3l3xCFrEM4QsR5JLQsiTvAkJkHc2LLt5bdib7nRiDJDd2Z3Nbif9S03l+3omU5v+1fT09PTOOBgkIOAGR/ZbwAlCGGcIYZwhhHGGEMYZQhhnCGGcIYRxhhDGGUIYZ3A1NHW0IgGJNedYZjm7p7/AIn6wK2GJ1edw9HICy24ms6EARdfLWWY5q0cuZtGvCXL3w9Y7NrDMvrCZsGx1Mb4oPcayDoo0l5CpLmSZ7Rjq4onFAXNY1sEYzxBsGvcwy2xHnwkr11birZwDLAOqmxtwXl3AMvvHx3UIZg6byDLgzuFTETN6Bcv6DqsKq2tR4+XzH9JY06ZDUl0WjfsDge7DMWnoGBrf4z8bj4QupbG1sYqwTlFN7S1Q1WSw0v7LKI8ATPAKpXF08AK6WAvFhGn1TXg6+Q0at9xoQ0ZDPo0HGsHuIxDiMQKPhUdjWdA8Vqocighbf2Yn9IZ2pNXnsRJBqEcgAtx9FRdnsTAiK7kum2WCnhBxu6Y8i4UjoliJZZgtbK1qO20G866VshLB7SAdFG+XIXhBura7t8flglzMEkZkpddfwA3pR2A6RNzu6VulS4IprEQ+sscSNya9JmSZydWmWuzI2IuztZmsRD6yhRVpyoUsC6jQVdFrUnORJewR1R9R2VzLMoG5kGtUMm5qDiYLI7LItVW7QRxdllLf2oht6e/jnHRqkYtJwjo7GUKWchBpZIBBLkaFdcoySD8CZSEjQ6l1uSwzDaPCyLWW6GRYB117M55I2oVpJ9Yh/9pFVto7sjodAuUh0jR6rcmnGyGMM4QwG/HxrJcxx3cSy0xHljBPZ3c4SD8Cy3B3coOLoxPL5CFLWOyifRjPbtQJzIPI2jdzO+72n8VK5CG7STwhSSOzigTyGeTkapEsglnnsMQln2GCVxi9uyowDpnAQ+rqvenbLJJFMLvTQY6000s+FdKMQKbM/WXKc7SulLjzbLawTjqlkXs9gl8goki97IzcqOgUAYuFEYi0H+/+CBFe4Rg/ZGB3Soa7edN62DX5WVova0YtYWuUQRFhBE9nDxxftBeH73qXfmCyjPUcydb2b4a5enX9z1smrKf1sCpkEVurLEanCESfer5r3kbCvQcQ4uFPY1OoaW7AlrR3aazVNyO7sYjG/QFyJJHp24T7pSbv8fBoGsuh+wSmYws/wMSho2ncG1YV1p2L2iv4U8Y+Gl9r03I5eYf09jqb/AUjoiyea2/XwrqT21iCN7M/YVkHNS0NKLl+mWW2x8NpECZ7j2VZB2Ru/baIx1hmOdwIuxVna87f9G2W7uRfK8MlXSXLlGFJL1POQjwC8Mqkp1hmHbgWZozvyk7i56oUlinD/tmvsMg29Gth/RFzhCnWrRf0DUIYZwhhnCGEcYYQxhlCGGcIYZwhhHGGEMYZQhhnCGGcIYRxhhDGGUIYZwhhnCHrfth8v2l0brhAGVLrc9HQqqGxVW5gCqyHuIHZT5F1hH0Q9RKGu/nQWGA5ZOZYZ92KOR0cIOZ0DACEMM4QwjjDhsJ0KE87jJ0rp2HatO7LGmzdfRKX2FbdaUj7Gi/+7h663VPvH0V+HVuBavz09mNYOb/nvtiy/mPkaVu7Hg9z6euYrnW7k1ghL5BOR28sj99sGH0kmi7l2kpWqgQaQ1HC3wzrx9JnInVbXAzuQ/wMMx/fZfgmvYFtSyg0HNm51hDp6ki3c1u63XAss4atqzAcfm62YaxXz32xZcarhrRrzQY93TbR8Idhbl3rgnck0lJb8KhqR1fd5qiLWWnv2EGT6Iup972IL/9XitLSUiR+tQO/HVeDc4fjEHcyBV0P9CnKwpmCArTc/wSeWDkPd+ScQ0bZVXQ8DNAfy17/N+IzyT4OY1vESHjjfuxOTEeetM/SYy8gcrBrR3OiisX++hbJ4UG8OgNQH4qFiu6DD+xAmCPcBnvDf2QYwsLCMHf1M9i06TnM905FTl4qLjBjRVlJKC5pxNRZy7Bwfjh83ROQklGGq9SYMwb7BiEklOwjAN6uLnCCB4aHjMQoaZ9hQT5wc+x4wogq9hCuYwYeeugRRE0B9OpDiOXImN11OpzdgzEybAyCAlpxpboKV6oapNJ8ZJwpRKE6EjOmTkD04oUIHhWCH/6bhtLL1R1/aBLxOPKpGpi9Dg9GemDZgzFoaVPj0yPxbL39Y3fCpGt5OEhHg6P0yaQmmy7Iz0JSSTE0kyIxOTwEw6ZGYUFwKALj/okTKQW43MT+1BjxJ/CFrg2zH47GeCfpbLlsNR5tbcH1g3vw1a16OXaIHQprhLq+DvU1wHAfH/gN85Z8JaGkOBtlP+7Bo78Jg4/vQjz/zWlU6HOgSs1FTb1pxuJPfAFdWyvSds2Br7c3vP3W43vo0apT4fgpPozZnbCL/zmIj/e8iR8uRWHi+JmIGF+MDFURCjNv4EZbC7SaRjQ2atDUppe6eTeQk5CCnKo6GFcWhyOf6CD5QnuTRtoH2Y8W5Jmg7a3NUB356ZcOjh1jB8JqkPKvP+O+AKkpdHBA+L1b8fezQNSGaKzdsALjCi/g7MViZN/5DPb8VNrVTBoM5/HRqrkIzVchKa8adcaMxcXic30bWmO+67YPA7QN3yGmvRVNybH4mQNjdtgkTsKqLd/gH1+9hhXjgMILabgoNYd3To7A5DFhbBvCFMxZ6o/A0HzEJ+Wh2oixuNjPoZcOr5jlv35uhovrEiyPaYe2KRmxHBgTo/U2RIzWDwCEMM6Q1SR+O+8d+k4sgTJsSdvd9WI8MQmHM8Q5rJ8i6wgjT2dzcXSmscByyrRX6XPrCWISDgeIbv0AQAjjDCGMM4QwzhDCOEMI4wwhjDOEMM4QwjhDCOMMIYwzhDDOEMI4QwjjDCGMM4QwzuDyBubRigScVxewzDIGObripYkxLOtb+sWrPJJrs3Cysvfvsaqqz6HoejnLLMPV0Rnrwx5g2c2EDg40691gpsCdsGx18U1vNCrSXEKmupBltoe82I28K6wn5NVUa0OXssw87F5YsaYC+4u+ZxlwpakGSbWZLOOLUI9ARPlOZBlwl990rAxZyDLTsEthV3Q12JP/NY1rmxtwuiadxv0NMqNsis94Gi8JmIulgXNp3Bt2I6yuRY2Xz39IY02bDkl1WTQeKIz2DO56P+aaUUuxOGA2jXtijjBFu/U6fTM2pbyJbenvI64ymS4DTRaBvBqy8/9/L+9LWifkDYRKoJgw8qE2p75DP6SqJoOVCgo0ZbRO3s79jNZR51x6c1FEGDm0yYc6VZ3KSgQ9yWksoXW0I2MvUutyWal8LBJGRHVvhwXGKZQuW17J/IjWW25jR99ADmYLeyr5DSpKyJIPkUbqTaPXshLTMUvYWtV2JFSlsUzQl8gWtjHpNaTXX8CNrmejCfoS2cKKNOVClg2RJYw0hZXNHc9PEyjLk0mv03ObMWQJq2yuQ7tBHF3WoLqlHm039Cy7PWZ1OgS2QwjjDCGMM4QwO0Gx0frji/YiwiucZQJrsSJhC3IbS1h2e0w6woi0YPcRNCb3xIY4D6axQDkUu4HZkwdObca38/5Kf5Nb/ALz8XAahINzX8fMblMNjCFbWHemnVhn1gCmAPTFeZ/PfUOWLIJFwghEGkGIMw0iytnBGXuiXsTd/rNYqelYLKyTBXFP0jHGq01i6OpW+LgOkZpAd7w19fe4a8R0ViofxYQRyISb5dK5rd3QToexBMBQF094OntgZ+RGLAuax0rNR1FhnZCjjAwUE8j4GBknG2h0ito8YR3WjPr1c4YtwSrCulNyvQLPp75LYzKrqkx3lcb9jWGuXvAf9MvDP58euxqrQhaxTDmsLqw7WepC7MzYxzLSUdGhQlfFMr4gR1CQux/LgJWSnGckSdamT4X15GxtJt7KPsCyDupbG1HVbF9NKLleIl+K6M7igDnYescGlvUdNhV2K364cgaHSo+z7GaKpSa2tkXNMmVwcnCkX264HRFDR+PPk55mmW2xO2HG2F/4PU5XKzsByMPZHQfmvMoy+4Y7YQMdcXuFM4QwzhDCuAL4P/h/xtX23+mxAAAAAElFTkSuQmCC;clipPath=inset(7.14% 6.48% 1.43% 6.48%);" vertex="1" parent="1">
          <mxGeometry x="90" y="90" width="102.8125" height="140" as="geometry" />
        </mxCell>
        <mxCell id="YeH8SXlZHnS6lYYfh2XQ-18" value="" style="shape=image;verticalLabelPosition=bottom;labelBackgroundColor=default;verticalAlign=top;aspect=fixed;imageAspect=0;image=data:image/png,iVBORw0KGgoAAAANSUhEUgAAAHMAAABqCAYAAACPmm61AAAAAXNSR0IArs4c6QAAAARnQU1BAACxjwv8YQUAAAAJcEhZcwAAEnQAABJ0Ad5mH3gAABbkSURBVHhe7Z0HeFRF18fPJpseIIUACYEQEppI+SiKED6lKoqigCCCIAKCgBVFeZUXpHdBmq8FQTHChwIqJVhAAaUYJIDwBQKYSgtJSO+57/xnZ5PdZJPs7r3L3uTJ73nuk5nZ3cuy596Zc86cc65GYlAdtQIH8beOWkCdMGsRdcKsRdQJsxZRJ8xaRJ0waxF1wqxF1AmzFlEnzFpEnTBrEXXCrEXUWGGmpqbSZ599Rk2aNKF69erRV199Rda6mXNycujGjRuUl5cnRmoocLTXJKKioqQOHTpILi4ukFzpodFopHPnzol3mQ+7KCRfX19Jq9VKHh4e0po1a8QrNY8aIcyUlBRp5syZUsuWLY0EWP4IDQ0VnzCfN954o8J5GjVqJE2YMIELuiahWmEWFRVJERER0pAhQyRXV9cKP3hlR0xMjDhD9bBpVWLTtMnz4MC/O2rUKOno0aPiE+pGdcKMj4+X1q1bJ7Vt29bkD1zdsWLFCnGm6lmwYIHJc5g6evfuLe3atUvKzc0Vn1YfqhBmfn6+FB0dLY0dO9bkD2nJ4ePjw+84cyg/bdcPY7NASEdJ41z5TID1NTw8nE/9asPuwjx//rzk6elp8oer6nBv30MKmrvd5GsHDhwQZ6+cI0eOGH1G4+witdsRX3r4jXrL6HVTx9SpU/mFqBbsGjaSnp5OzZs3p4yMDDFSNQ5unuT3zAyqd/9jpPVpTEyDpYQl4ynr1C/iHTqeffZZbqpUBluPKTg4mBITE8UIkXNgKwr5wPg8JXnZlJ90hZLDl1L22SNi1BimAdP9999Pe/bsITc3NzFqH+wqzIMHD1K/fv1Er3I8Oj9IXgPGkGfHMHJw9RCjOjKO76eklZNFTwd+1N9++42Y+UJXr14lpshQixYt+GtsLaYrV65Q69atqaSkhI+BwDf/wy6SQaJXEQg16/RBSvvxSyq8HitGyxg3bhxt3rxZ9OyDXYX5999/E7MZRc8Yx3reVO+BweTd/1lyDW4vRitSUpBPl6f2pOL0ZDFSPQ0aNOCzgh5twwBqtfG46FWNVFxMWVG/Uvqv/0eZxyMwwsenT59Oa9eu5W17YffovAEDBtDPP/8segJHR2r96Wly9PQSA1WTduALuvHpe6JnOd4Pj6UmExeInnnkXDhBcXOe5m3c+devXycvL/O+r62wuztv2rRpomUAu/pT934mOtXj2X0guyw1omch7HNeA58THfOQ2PSctGa66BE99dRTdhcksLswH374YdEyJuPYXtGqHiefJnxNtQb3e3uRa/M2omcehbeTqCj1puhVckHaAVUEQS9ZsoRmzZolegKNA7VY9B25hXYSA1VTkp9LyduWU/a5P5im24RcW7QjJ7+m5BwQIt5RRn7seSq4mcBf9+ozwuzpXM+tr5dTyk7d+ti7d286fPgwb9sbVQgTJkKzZs1Erwy3tt0paN433ARRC8VZ6RQz5T6S2MUDdu3aRU8++SRv2xtVbIEFBARQ165dRa+MvH/Ok1Sg+9HUQvb5Y6WC9PX1pUceeYS31YAqhOng4EDr1q0TvTKk/BzKiiyn6dqZ9EPbRYu4KQJNVi2oQpjx8fH0wAMPiJ4xmZE/ipY6KEq9IVrEvT5qwu7CPH36dKWOA2Ctlmor4MjQEx4ezhUgtUQo2ESYFy9epD///FP0KufYsWN8zTHpm2XarO/Ql8m97X1iQB34PjGZGr8wT/SIjh49SgMHDqT8/HwxYj8U12YvXLhAnTt3psLCQvL29qZHH32UBg8ezK/gpk2bincRJScn8zEIvjyOXn4UMG0VeXZ+UIyoj9zLUZSwaBwVZ6bxPgR64MAB3jZFQUEB/fLLLzxuKSYmht/V7dtX7qa0BsWF+dJLL9FHH30kesbAQTBixAguxNGjR5u8e12C76XAtz4mZ79AMaJeClOvU+y7Q6nodhLvDx8+nLZt20aOjo68D0c+nPpYWxctWkS3b9/m4wAX/KlTp7jypxSKCrO4uJgCAwN5pBv8q+x/w1RS80/v1qYbBc3dThqtkxixDqm4iJk0+exvIUmFBXxM4+JKDi7upHHU8r5SFDKF6J+Zg6g4PYX3N23axC9YzFCvvPIKHT9u6MDX8O8B08YW/lxFhblq1SqaMWMGbzd6fg55dOhFcf8eTiXZ1e9XujRvQy2W7CUHJ2cxYjmFKdfpVvgyyvrzABcoLiappJi/BiE6uLqTz5Ap1HDIS3xMKfDvXp5yv+gRubu7U25uLjb+xQiRc5MgavrGRvY9nOjqjAF87L333qP58+fzthIoKkxMHWfOnOEbxyHrfueCKWF3RtbJCLq5ZT4VpZX5Mw1xb/8ANZ/9lVV3TQmzRbkAI3+iwlsJYrRqNOwO9fyfh8h/8hKLXXmVkRX1GyUsNHbYa5xcyGfwRGrw4DBy9g9mOp1u+o1fMIayzxzm+63Xrl0jHx8fPi4XxYSJTWBs/ELx8er/LP+hDCnJzab0Izvp9q4NpWsMcA3tREHzd5KDFVNryp5PKWX3BjbFla1FFsEungb/O5S8B40ntyr2TM0l7cetfPMamrjPI2PJs9sA0jZoKF4tI+vsEUqYP5q3IyIiKt1ssBRFhIlTDBo0SKfNsQU9ZPVBdiW2FK8aIxUVUuq+zynj2B7uEPefspS09bzFq+ZRmJxESWteptyLkWJEJuyOqd/7KWo0cgZ3vtuaktwsujSxC1vX86hHjx7cvNErTXJQRJhpaWnk7+/PbS3P+x6hZkwbtRW5V89R7NuPiZ75YB3z9PTkMTt6DRLRBkhzMAwf8Z+6khr0flK2ElYdKT98Qre+0K2X0Oq7devG23JQRC/esWNHqdHs1Ue3+24Lcv7/pFmChH2LPcZDhw7xWQNHdnY23bx5ky8Hly9f5gdsXdi5vXr1Ep8kur5hBiUsfl70bAfWURIXzPbtZf5eOci+M6G1NWrUiLKysrgy0eqTUza5qnOiI5niMLp0x6I8YWFhtHr1ah7th90MS+w3mFSXLl2i5557jtt+wCWwNdOu9zBzxjaOdEQrxM56nPLYTINZAzao3Og+2XcmpggIEjQaO9smgixKT+ZhGqYE+cwzz9DZs2fpyJEjfBvNz8/PYkMc61W7du0oMjKS1q9fz7XM/MRLFDf7KaYt28bvqmHf0X/6Kq4sIQtt48aN4hXrkS3MDz74QLSIqfu2cb8lrX6ZacDXRE8H4l737dtHX3/9dZWOekuZOnUqPyfWVuynxv7rCa602QLXZm3IqbFuUx6eI7nIEmZsbCzt3r2btxHhpvVqxNtKkvbTV5Tz9x+ip+Ohhx7i9iw0aFuAAK1vv/2WT3/58dF0bcObOieEDWgQpotSwAynn+KtRZYwcQVzHJ3Ib/Q7uraCFGen083P54qeDthkUGyQYGtL8O/o42AzjuyiTBttkvsxcwhODIDYWznIEqbeoQ5XFVxlSpO6fzNJhWVbS7DJ9u41P2pPLs8//zyfBUDSB1OpKCOVt5Wmfg/dDIOgcDlYLUxof4gQAIU349na8iR3USlFUfptSvn2Q9HTxdtgSlfCuDYXKFJYy5ydndk0UWRRLK+5pP2yjWvqAIpkZTtO5mC1MBFNN378eHJycmIKQgHlXY7iPkc4kZO/XUvFOZnindaRe/mMkeIBRatx48aid/eA2TV06FDeTovYTMVZd3hbDgXXrtLNLfPo0qSudOOjmexmiOPjWq2WOnbsyNvWINvOhKMYca/wMWLTVY9G68z9nl79R5FrSCeuiltC0urplPH797x9zz33UFRUFL9w7AFMBwgVjoeGbI3zG/6qeMV8ENeLyD5cENmnfxWjOnBjPP7443zNhIlkLYo52gE8Qe+//z73rhiGUQS8to4a9HpC9KoHmuPF59qVrpfYoe/bty9v24suXbrweCVsDAQv/kGMmgdmrphJ3dldrYtKALgLYV6988479MILL4hRechSgMrz9NNP80Ucd6thYHDqd5YZxAXXrxopPvfdZ/84IIS/ANielpK0aqqRIKEpp6SkcL1DKUECRYWpB/tzO3fuLPXEuARZNnUUGOQ/IgwFDnJ7M3LkSF2DzRqW5MEAp4CyHSQIEEtS/fr1xYhy2ESYAOGH+t0IrZcf/2su+iAp8NZbb4mWfYGXSX9RZf11kP81F9cW94oWW9dsmGphM2HCea3HOSBUtMwD+30AHhgoHmoBSbogL9ayqdbJu+xijovTaa62wGbCVALYd3fTrqwOBKsB1DqwFkRi2ApVCxO7F9D61AJMFDWjamHiKjacru0NohLUjCqF6VhPF62GEi+GIR32JCkpiR9qxmbC5P5MQcG1y6JlHo5euog2TGu2XGMs4ZtvvhEty8k+XxYIjZKqtsJmwjQMxS9MKUuDMwfnxs35X9yZJ06c4G17g/1NPeVrEVVHbsxp0dJFMtoKRYWJuwhGMbaODJOEHFwsi21xbhxEDiI4ed68eTb9AcwBST/nzp0TPSK3Vl1Eyzyyo8p8sajm9fbbb/PAMqWXEMWEiawmxN+0adOGtmzZIkaJtMzGajj0ZdEzH4Q7AsSUIqrOnsyZM4fu3CnbLfHsotvjNBefR8tcdrjgly1bRiEhITyK0DgXRR6yhIkMJ2wPYa8RWV2lVa+YbYgwkpAPD1PoxpNWBRYblj6zZ4YyckcNK29pnF3Js3Mf0TOPxuPnUsj638nniRdLwysBzo2MccQcT548me/KyMHqXRNsSfXs2ZOHWupB8o/3w+OoXveB7I6U57kpycuhSy904g53XMHYiVEqJ8MSVqxYYeRSdO8QRkH/Dhc9y8Gme+aJCEr57iMqvKXb3NcDpfHLL7/kWWTWYPWdiXVEL0ikGQS+8zkFLz9A3gPHyBYkQBiKPkMZEfOYmu422J8t7xtGLT85IPcEv1HI2sPU9PUN5NGlb+ndit9069atvG0NsvYzu3fvzmNNHdkXbPWfk4rnPsJtFvNi91Jf7ffff883ce8GmPIQ/4P/nx631l2pxcJdoqccV17vRwWJMXyXCTMQ9jmtQdaaiWRSUJyRQgU3lHcgwwQIeHk1thp4HxHn+rgjWwKTCJvGhoJkX4L8Rr8t2sqBKReCBEFBQVYLEsgSJmoVcNjNfe1DnWCVBuuveztdIisULGxUG5YXtQUTJ06sUJfId+j00u+hJLcNNu5L90ytRJYwoZhACwPImSgQgUlKgxoHTk10xX9hpsCGhcliC6CVf/HFF6Knw6lRM2ZeTVd8L7KYKXn5sRd4G7/l3LnGMcKWIkuYwDDsIf2oLgBLaZCQ1PTVteTgodudx3qGmCCkkctV5/XAzEJcLuxlQzUC+kDw8giLHR/mkLx1UWl4DKLzsUskB9nC7NSpE7eTAGJ9ioWyojSobtls1hZepx3A+F64cCHPa4TfFJqgNWANhlMgNDS0guvQOaAlBS/bR47uykfPQ7m7c2iH6BG9+qrlEX/lkS1MXE0rV67kbWid2X8d4m1b4N6mK/tx9/OaCXqio6N5IBmmXtho2Mk3tH1NAWMdeZlQ4CBEuAzL4xramf1bEbyWrS3Ii4suLfLYp08fRYLWFAm1xI+DAGXE/UBJCJpXdsXZiri5IyjHYDeiPCiYhLo8KM2CwhlI+4MAkTmGhKeqQP5HQytiYy3h6ut9KT9Rt5uEEFV8V7koIkycAo+f4GlpTEkIXrqXXIPLgphMcefXb6het/5WV/tASZi8K2cpceUUKkq5Lkbl4d6+B/lPWUZOjYOsUnaK7iRT5skD5NmlLzk1DBCjFclPukxXX9PFAcOrhdBUueslUCwIGlomYmRgozV4aDgvl1ae3CtnKGX3Rp6TgikZa1LQgl0WF6gwBG6/7DO/Ueq+TZRz4SQbsey/o2GKjVefkew7DyO3EPOqTpsiLz6a/pn5KA/FRMELlMPxHTKZPDtVzFlFlZRbW3RT+8cff0yTJk3ibbkoJkwAZQjTGR5jEfpxJC8HU1JUyGvGph3YUiHPEnh07E2BszZbVTqmPDCNstiajbp2+QmXeEkZw5KiDkyRcazvS06+/uTSvC3/wT079bZ4f7I8CA39519DqPBGxenbvUMvJtQp5NEhjNcBQsWwK688yOu8A9wESkUgKipMlBqbMGECb6MipYOzC93evYEkdvcYgjsY/la9WYEdEjwkpiaCHJLE5ZOqzYBzDelIfqNm8pyb+Hk6/y7q0qOmnlIoKkyAPU3DKAM9WBOw17l48WIe6o/aAdAm9Ru09XoMoqavrVfcv2tLkKWWuOJFo8dXYQ2EBwlPH8LvUGEDWuvMFtcCXowC1U6Qbq8Usk2T8kARKg/q6eGLI/FGn7OB2gGGDofM4/spcekEPi3XFOLmjTISJLK54XxYunQpf4gA2o89Vq7UDRMkwJKEIG8lUfzOhBGO/wCK6M+ePZvnG1aWV4FMsTFjxhgFS7m0aE/NZ28lLVvb1EpxdgbFsjWy4NoVMaLL4/zjjz94BEF5cIdCl4C/F09bwCyVkJDAZzElUVyYloJwjFGjRvFkGj28DNtLy1VZPBg5ltc3vGlUdBE2NhwWeBRWdUDhgWDNea+l2F2YAOnfKO+NK1v/dRCegYfUuFqYQWZLspgJlLCYLQ3FZUsB7kik51f2wIC7ieJrpjUguwq7IIbVHVEkMOeivFIqSsM1VgNBIuMZJV/UIEigCmHqMfS64M70GaiuJye4t+kuWjqgtaK8m1pQlTDxNAU9bq06i5Z6QP1Yw2eLoZaDmpKJVCNMFDE0jE316jdKtNSDBiGkg8aJnq4I5P79+0XP/qhCAcrMzDQyX/AojNafWLZewvGeeXwfFaXd4i47RAgiwk/rXbZdhopfJTlZ7D03+PtcmRnkfo9loSAFTIu9Mq2spGn//v3pp59+Ej37ogphooK04QPS8HBS/0kLRc88MpnxnrhkvOiZT/M528njXssUGMOyNuDkyZM8UtHe2H2aRf7l2LFjRQ9oLI5NRakZlEOzBtTlsZSGT78mWjrkVNVSErsLE3Vib926JXpErkzxcWlxj+iZR25MVKVFhasj82SEUUEMc0CAlyGorKIGHOfKDQmTCeJvUG5UD8qZZZ36mZy8m/DHR5gDSpfpY08BahDhcU54mgPCQhD2j1QKZGChhDdyYxBsXIrGgTw6holO1UDwKbvW86fj6svBIcICXiB7T7V2XzNRYgw7KKaAGVC/52Cev6IVCbjlKUhOpCtTe4qeDuTBwJFdGUg7RAk3fYo9NslD1hiXQCtP5l8HKf3QDn6hGRac0oPdIARO2xO7CxOOeRjf1WmEDfqOJK8HhzHts4cY0XGb3SXJ4UtFj3gIJsqzVQUi+2Ds88dcCfA4ZPd2xkFVuFCwK5L6wycVknz0oBpKv379eByPLQo1WQSEqQYyMjKkkSNHSj4+Pri4Kj2YqSE1m7VZar3pjNR221VJ6+tv9DoTpDhj1YSHhxt9zjW0k9RuR7zUJjxGCl6+X6ofNsTo9fKHt7c3/75xcXHijPZHNcI0ZNOmTSZ/wPKHa8sOFcaYIS/OUj1snSv9nMbFXQqYtpL/NTxf+cPDw0PasmWLOIO6UKUwQU5OjhQZGSn16NHD5I9q6li9erX4tHlMmDDB5HlMHcOGDZNOnTpl0cVyt1GtMA05d+6c9O6770qenp4mf2gceC07O1t8wjwSExMlrVZr8nw4/P39+QUSHR0tPqFuaoQw9aSnp0vMQJeYiSFpNBqjH54pIVJJSYl4p/kMGjTI6Dz6c23evFliJod4V82gRgnTkBMnTkgjRoyQAgMDpbCwMIvvSj3Hjh2TunXrJjFTRZo0aZLE7E/xSs1DFb7ZOpRBVfuZdcijTpi1iDph1iLqhFmLqBNmrYHov2jG8F7dDEULAAAAAElFTkSuQmCC;" vertex="1" parent="1">
          <mxGeometry x="240" y="130" width="65.09" height="60" as="geometry" />
        </mxCell>
        <mxCell id="YeH8SXlZHnS6lYYfh2XQ-19" value="GASF / GADF&amp;nbsp;&lt;br&gt;Encoding" style="text;html=1;align=center;verticalAlign=middle;resizable=0;points=[];autosize=1;strokeColor=none;fillColor=none;" vertex="1" parent="1">
          <mxGeometry x="221" y="193" width="100" height="40" as="geometry" />
        </mxCell>
        <mxCell id="YeH8SXlZHnS6lYYfh2XQ-22" value="" style="endArrow=classic;html=1;rounded=0;" edge="1" parent="1">
          <mxGeometry width="50" height="50" relative="1" as="geometry">
            <mxPoint x="192.81" y="159.47000000000003" as="sourcePoint" />
            <mxPoint x="242.81" y="159.47000000000003" as="targetPoint" />
          </mxGeometry>
        </mxCell>
        <mxCell id="YeH8SXlZHnS6lYYfh2XQ-23" value="" style="endArrow=classic;html=1;rounded=0;" edge="1" parent="1">
          <mxGeometry width="50" height="50" relative="1" as="geometry">
            <mxPoint x="300" y="159.47000000000003" as="sourcePoint" />
            <mxPoint x="350" y="159.47000000000003" as="targetPoint" />
          </mxGeometry>
        </mxCell>
        <mxCell id="YeH8SXlZHnS6lYYfh2XQ-41" value="" style="edgeStyle=orthogonalEdgeStyle;rounded=0;orthogonalLoop=1;jettySize=auto;html=1;" edge="1" parent="1" source="YeH8SXlZHnS6lYYfh2XQ-25" target="YeH8SXlZHnS6lYYfh2XQ-33">
          <mxGeometry relative="1" as="geometry" />
        </mxCell>
        <mxCell id="YeH8SXlZHnS6lYYfh2XQ-25" value="&lt;font style=&quot;font-size: 14px;&quot;&gt;CNN Model&lt;/font&gt;" style="rounded=1;whiteSpace=wrap;html=1;" vertex="1" parent="1">
          <mxGeometry x="340" y="466" width="120" height="60" as="geometry" />
        </mxCell>
        <mxCell id="YeH8SXlZHnS6lYYfh2XQ-32" value="" style="edgeStyle=orthogonalEdgeStyle;rounded=0;orthogonalLoop=1;jettySize=auto;html=1;" edge="1" source="YeH8SXlZHnS6lYYfh2XQ-33" target="YeH8SXlZHnS6lYYfh2XQ-34" parent="1">
          <mxGeometry relative="1" as="geometry" />
        </mxCell>
        <mxCell id="YeH8SXlZHnS6lYYfh2XQ-33" value="&lt;font style=&quot;font-size: 13px;&quot;&gt;Dense layer , LN,&lt;br&gt;ReLU , Dropout&lt;/font&gt;" style="rounded=1;whiteSpace=wrap;html=1;" vertex="1" parent="1">
          <mxGeometry x="520" y="466" width="120" height="60" as="geometry" />
        </mxCell>
        <mxCell id="YeH8SXlZHnS6lYYfh2XQ-34" value="&lt;font style=&quot;font-size: 14px;&quot;&gt;Classification Layer&lt;/font&gt;" style="rounded=1;whiteSpace=wrap;html=1;" vertex="1" parent="1">
          <mxGeometry x="700" y="466" width="120" height="60" as="geometry" />
        </mxCell>
        <mxCell id="YeH8SXlZHnS6lYYfh2XQ-36" value="" style="shape=image;verticalLabelPosition=bottom;labelBackgroundColor=default;verticalAlign=top;aspect=fixed;imageAspect=0;image=data:image/png,iVBORw0KGgoAAAANSUhEUgAAAGwAAACMCAYAAACZIkxPAAAAAXNSR0IArs4c6QAAAARnQU1BAACxjwv8YQUAAAAJcEhZcwAAEnQAABJ0Ad5mH3gAAAwESURBVHhe7Z0LcBRFGsf/eZMQQkIIeUISnobwDi8PBBRBkQAniiCcpsQXVR4ieB5weqKelqdoUYKe1ImionUq3l3xCFrEM4QsR5JLQsiTvAkJkHc2LLt5bdib7nRiDJDd2Z3Nbif9S03l+3omU5v+1fT09PTOOBgkIOAGR/ZbwAlCGGcIYZwhhHGGEMYZQhhnCGGcIYRxhhDGGUIYZ3A1NHW0IgGJNedYZjm7p7/AIn6wK2GJ1edw9HICy24ms6EARdfLWWY5q0cuZtGvCXL3w9Y7NrDMvrCZsGx1Mb4oPcayDoo0l5CpLmSZ7Rjq4onFAXNY1sEYzxBsGvcwy2xHnwkr11birZwDLAOqmxtwXl3AMvvHx3UIZg6byDLgzuFTETN6Bcv6DqsKq2tR4+XzH9JY06ZDUl0WjfsDge7DMWnoGBrf4z8bj4QupbG1sYqwTlFN7S1Q1WSw0v7LKI8ATPAKpXF08AK6WAvFhGn1TXg6+Q0at9xoQ0ZDPo0HGsHuIxDiMQKPhUdjWdA8Vqocighbf2Yn9IZ2pNXnsRJBqEcgAtx9FRdnsTAiK7kum2WCnhBxu6Y8i4UjoliJZZgtbK1qO20G866VshLB7SAdFG+XIXhBura7t8flglzMEkZkpddfwA3pR2A6RNzu6VulS4IprEQ+sscSNya9JmSZydWmWuzI2IuztZmsRD6yhRVpyoUsC6jQVdFrUnORJewR1R9R2VzLMoG5kGtUMm5qDiYLI7LItVW7QRxdllLf2oht6e/jnHRqkYtJwjo7GUKWchBpZIBBLkaFdcoySD8CZSEjQ6l1uSwzDaPCyLWW6GRYB117M55I2oVpJ9Yh/9pFVto7sjodAuUh0jR6rcmnGyGMM4QwG/HxrJcxx3cSy0xHljBPZ3c4SD8Cy3B3coOLoxPL5CFLWOyifRjPbtQJzIPI2jdzO+72n8VK5CG7STwhSSOzigTyGeTkapEsglnnsMQln2GCVxi9uyowDpnAQ+rqvenbLJJFMLvTQY6000s+FdKMQKbM/WXKc7SulLjzbLawTjqlkXs9gl8goki97IzcqOgUAYuFEYi0H+/+CBFe4Rg/ZGB3Soa7edN62DX5WVova0YtYWuUQRFhBE9nDxxftBeH73qXfmCyjPUcydb2b4a5enX9z1smrKf1sCpkEVurLEanCESfer5r3kbCvQcQ4uFPY1OoaW7AlrR3aazVNyO7sYjG/QFyJJHp24T7pSbv8fBoGsuh+wSmYws/wMSho2ncG1YV1p2L2iv4U8Y+Gl9r03I5eYf09jqb/AUjoiyea2/XwrqT21iCN7M/YVkHNS0NKLl+mWW2x8NpECZ7j2VZB2Ru/baIx1hmOdwIuxVna87f9G2W7uRfK8MlXSXLlGFJL1POQjwC8Mqkp1hmHbgWZozvyk7i56oUlinD/tmvsMg29Gth/RFzhCnWrRf0DUIYZwhhnCGEcYYQxhlCGGcIYZwhhHGGEMYZQhhnCGGcIYRxhhDGGUIYZwhhnCHrfth8v2l0brhAGVLrc9HQqqGxVW5gCqyHuIHZT5F1hH0Q9RKGu/nQWGA5ZOZYZ92KOR0cIOZ0DACEMM4QwjjDhsJ0KE87jJ0rp2HatO7LGmzdfRKX2FbdaUj7Gi/+7h663VPvH0V+HVuBavz09mNYOb/nvtiy/mPkaVu7Hg9z6euYrnW7k1ghL5BOR28sj99sGH0kmi7l2kpWqgQaQ1HC3wzrx9JnInVbXAzuQ/wMMx/fZfgmvYFtSyg0HNm51hDp6ki3c1u63XAss4atqzAcfm62YaxXz32xZcarhrRrzQY93TbR8Idhbl3rgnck0lJb8KhqR1fd5qiLWWnv2EGT6Iup972IL/9XitLSUiR+tQO/HVeDc4fjEHcyBV0P9CnKwpmCArTc/wSeWDkPd+ScQ0bZVXQ8DNAfy17/N+IzyT4OY1vESHjjfuxOTEeetM/SYy8gcrBrR3OiisX++hbJ4UG8OgNQH4qFiu6DD+xAmCPcBnvDf2QYwsLCMHf1M9i06TnM905FTl4qLjBjRVlJKC5pxNRZy7Bwfjh83ROQklGGq9SYMwb7BiEklOwjAN6uLnCCB4aHjMQoaZ9hQT5wc+x4wogq9hCuYwYeeugRRE0B9OpDiOXImN11OpzdgzEybAyCAlpxpboKV6oapNJ8ZJwpRKE6EjOmTkD04oUIHhWCH/6bhtLL1R1/aBLxOPKpGpi9Dg9GemDZgzFoaVPj0yPxbL39Y3fCpGt5OEhHg6P0yaQmmy7Iz0JSSTE0kyIxOTwEw6ZGYUFwKALj/okTKQW43MT+1BjxJ/CFrg2zH47GeCfpbLlsNR5tbcH1g3vw1a16OXaIHQprhLq+DvU1wHAfH/gN85Z8JaGkOBtlP+7Bo78Jg4/vQjz/zWlU6HOgSs1FTb1pxuJPfAFdWyvSds2Br7c3vP3W43vo0apT4fgpPozZnbCL/zmIj/e8iR8uRWHi+JmIGF+MDFURCjNv4EZbC7SaRjQ2atDUppe6eTeQk5CCnKo6GFcWhyOf6CD5QnuTRtoH2Y8W5Jmg7a3NUB356ZcOjh1jB8JqkPKvP+O+AKkpdHBA+L1b8fezQNSGaKzdsALjCi/g7MViZN/5DPb8VNrVTBoM5/HRqrkIzVchKa8adcaMxcXic30bWmO+67YPA7QN3yGmvRVNybH4mQNjdtgkTsKqLd/gH1+9hhXjgMILabgoNYd3To7A5DFhbBvCFMxZ6o/A0HzEJ+Wh2oixuNjPoZcOr5jlv35uhovrEiyPaYe2KRmxHBgTo/U2RIzWDwCEMM6Q1SR+O+8d+k4sgTJsSdvd9WI8MQmHM8Q5rJ8i6wgjT2dzcXSmscByyrRX6XPrCWISDgeIbv0AQAjjDCGMM4QwzhDCOEMI4wwhjDOEMM4QwjhDCOMMIYwzhDDOEMI4QwjjDCGMM4QwzuDyBubRigScVxewzDIGObripYkxLOtb+sWrPJJrs3Cysvfvsaqqz6HoejnLLMPV0Rnrwx5g2c2EDg40691gpsCdsGx18U1vNCrSXEKmupBltoe82I28K6wn5NVUa0OXssw87F5YsaYC+4u+ZxlwpakGSbWZLOOLUI9ARPlOZBlwl990rAxZyDLTsEthV3Q12JP/NY1rmxtwuiadxv0NMqNsis94Gi8JmIulgXNp3Bt2I6yuRY2Xz39IY02bDkl1WTQeKIz2DO56P+aaUUuxOGA2jXtijjBFu/U6fTM2pbyJbenvI64ymS4DTRaBvBqy8/9/L+9LWifkDYRKoJgw8qE2p75DP6SqJoOVCgo0ZbRO3s79jNZR51x6c1FEGDm0yYc6VZ3KSgQ9yWksoXW0I2MvUutyWal8LBJGRHVvhwXGKZQuW17J/IjWW25jR99ADmYLeyr5DSpKyJIPkUbqTaPXshLTMUvYWtV2JFSlsUzQl8gWtjHpNaTXX8CNrmejCfoS2cKKNOVClg2RJYw0hZXNHc9PEyjLk0mv03ObMWQJq2yuQ7tBHF3WoLqlHm039Cy7PWZ1OgS2QwjjDCGMM4QwO0Gx0frji/YiwiucZQJrsSJhC3IbS1h2e0w6woi0YPcRNCb3xIY4D6axQDkUu4HZkwdObca38/5Kf5Nb/ALz8XAahINzX8fMblMNjCFbWHemnVhn1gCmAPTFeZ/PfUOWLIJFwghEGkGIMw0iytnBGXuiXsTd/rNYqelYLKyTBXFP0jHGq01i6OpW+LgOkZpAd7w19fe4a8R0ViofxYQRyISb5dK5rd3QToexBMBQF094OntgZ+RGLAuax0rNR1FhnZCjjAwUE8j4GBknG2h0ito8YR3WjPr1c4YtwSrCulNyvQLPp75LYzKrqkx3lcb9jWGuXvAf9MvDP58euxqrQhaxTDmsLqw7WepC7MzYxzLSUdGhQlfFMr4gR1CQux/LgJWSnGckSdamT4X15GxtJt7KPsCyDupbG1HVbF9NKLleIl+K6M7igDnYescGlvUdNhV2K364cgaHSo+z7GaKpSa2tkXNMmVwcnCkX264HRFDR+PPk55mmW2xO2HG2F/4PU5XKzsByMPZHQfmvMoy+4Y7YQMdcXuFM4QwzhDCuAL4P/h/xtX23+mxAAAAAElFTkSuQmCC;clipPath=inset(7.14% 6.48% 1.43% 6.48%);" vertex="1" parent="1">
          <mxGeometry x="100" y="423" width="102.8125" height="140" as="geometry" />
        </mxCell>
        <mxCell id="YeH8SXlZHnS6lYYfh2XQ-37" value="" style="shape=image;verticalLabelPosition=bottom;labelBackgroundColor=default;verticalAlign=top;aspect=fixed;imageAspect=0;image=data:image/png,iVBORw0KGgoAAAANSUhEUgAAAHMAAABqCAYAAACPmm61AAAAAXNSR0IArs4c6QAAAARnQU1BAACxjwv8YQUAAAAJcEhZcwAAEnQAABJ0Ad5mH3gAABbkSURBVHhe7Z0HeFRF18fPJpseIIUACYEQEppI+SiKED6lKoqigCCCIAKCgBVFeZUXpHdBmq8FQTHChwIqJVhAAaUYJIDwBQKYSgtJSO+57/xnZ5PdZJPs7r3L3uTJ73nuk5nZ3cuy596Zc86cc65GYlAdtQIH8beOWkCdMGsRdcKsRdQJsxZRJ8xaRJ0waxF1wqxF1AmzFlEnzFpEnTBrEXXCrEXUWGGmpqbSZ599Rk2aNKF69erRV199Rda6mXNycujGjRuUl5cnRmoocLTXJKKioqQOHTpILi4ukFzpodFopHPnzol3mQ+7KCRfX19Jq9VKHh4e0po1a8QrNY8aIcyUlBRp5syZUsuWLY0EWP4IDQ0VnzCfN954o8J5GjVqJE2YMIELuiahWmEWFRVJERER0pAhQyRXV9cKP3hlR0xMjDhD9bBpVWLTtMnz4MC/O2rUKOno0aPiE+pGdcKMj4+X1q1bJ7Vt29bkD1zdsWLFCnGm6lmwYIHJc5g6evfuLe3atUvKzc0Vn1YfqhBmfn6+FB0dLY0dO9bkD2nJ4ePjw+84cyg/bdcPY7NASEdJ41z5TID1NTw8nE/9asPuwjx//rzk6elp8oer6nBv30MKmrvd5GsHDhwQZ6+cI0eOGH1G4+witdsRX3r4jXrL6HVTx9SpU/mFqBbsGjaSnp5OzZs3p4yMDDFSNQ5unuT3zAyqd/9jpPVpTEyDpYQl4ynr1C/iHTqeffZZbqpUBluPKTg4mBITE8UIkXNgKwr5wPg8JXnZlJ90hZLDl1L22SNi1BimAdP9999Pe/bsITc3NzFqH+wqzIMHD1K/fv1Er3I8Oj9IXgPGkGfHMHJw9RCjOjKO76eklZNFTwd+1N9++42Y+UJXr14lpshQixYt+GtsLaYrV65Q69atqaSkhI+BwDf/wy6SQaJXEQg16/RBSvvxSyq8HitGyxg3bhxt3rxZ9OyDXYX5999/E7MZRc8Yx3reVO+BweTd/1lyDW4vRitSUpBPl6f2pOL0ZDFSPQ0aNOCzgh5twwBqtfG46FWNVFxMWVG/Uvqv/0eZxyMwwsenT59Oa9eu5W17YffovAEDBtDPP/8segJHR2r96Wly9PQSA1WTduALuvHpe6JnOd4Pj6UmExeInnnkXDhBcXOe5m3c+devXycvL/O+r62wuztv2rRpomUAu/pT934mOtXj2X0guyw1omch7HNeA58THfOQ2PSctGa66BE99dRTdhcksLswH374YdEyJuPYXtGqHiefJnxNtQb3e3uRa/M2omcehbeTqCj1puhVckHaAVUEQS9ZsoRmzZolegKNA7VY9B25hXYSA1VTkp9LyduWU/a5P5im24RcW7QjJ7+m5BwQIt5RRn7seSq4mcBf9+ozwuzpXM+tr5dTyk7d+ti7d286fPgwb9sbVQgTJkKzZs1Erwy3tt0paN433ARRC8VZ6RQz5T6S2MUDdu3aRU8++SRv2xtVbIEFBARQ165dRa+MvH/Ok1Sg+9HUQvb5Y6WC9PX1pUceeYS31YAqhOng4EDr1q0TvTKk/BzKiiyn6dqZ9EPbRYu4KQJNVi2oQpjx8fH0wAMPiJ4xmZE/ipY6KEq9IVrEvT5qwu7CPH36dKWOA2Ctlmor4MjQEx4ezhUgtUQo2ESYFy9epD///FP0KufYsWN8zTHpm2XarO/Ql8m97X1iQB34PjGZGr8wT/SIjh49SgMHDqT8/HwxYj8U12YvXLhAnTt3psLCQvL29qZHH32UBg8ezK/gpk2bincRJScn8zEIvjyOXn4UMG0VeXZ+UIyoj9zLUZSwaBwVZ6bxPgR64MAB3jZFQUEB/fLLLzxuKSYmht/V7dtX7qa0BsWF+dJLL9FHH30kesbAQTBixAguxNGjR5u8e12C76XAtz4mZ79AMaJeClOvU+y7Q6nodhLvDx8+nLZt20aOjo68D0c+nPpYWxctWkS3b9/m4wAX/KlTp7jypxSKCrO4uJgCAwN5pBv8q+x/w1RS80/v1qYbBc3dThqtkxixDqm4iJk0+exvIUmFBXxM4+JKDi7upHHU8r5SFDKF6J+Zg6g4PYX3N23axC9YzFCvvPIKHT9u6MDX8O8B08YW/lxFhblq1SqaMWMGbzd6fg55dOhFcf8eTiXZ1e9XujRvQy2W7CUHJ2cxYjmFKdfpVvgyyvrzABcoLiappJi/BiE6uLqTz5Ap1HDIS3xMKfDvXp5yv+gRubu7U25uLjb+xQiRc5MgavrGRvY9nOjqjAF87L333qP58+fzthIoKkxMHWfOnOEbxyHrfueCKWF3RtbJCLq5ZT4VpZX5Mw1xb/8ANZ/9lVV3TQmzRbkAI3+iwlsJYrRqNOwO9fyfh8h/8hKLXXmVkRX1GyUsNHbYa5xcyGfwRGrw4DBy9g9mOp1u+o1fMIayzxzm+63Xrl0jHx8fPi4XxYSJTWBs/ELx8er/LP+hDCnJzab0Izvp9q4NpWsMcA3tREHzd5KDFVNryp5PKWX3BjbFla1FFsEungb/O5S8B40ntyr2TM0l7cetfPMamrjPI2PJs9sA0jZoKF4tI+vsEUqYP5q3IyIiKt1ssBRFhIlTDBo0SKfNsQU9ZPVBdiW2FK8aIxUVUuq+zynj2B7uEPefspS09bzFq+ZRmJxESWteptyLkWJEJuyOqd/7KWo0cgZ3vtuaktwsujSxC1vX86hHjx7cvNErTXJQRJhpaWnk7+/PbS3P+x6hZkwbtRW5V89R7NuPiZ75YB3z9PTkMTt6DRLRBkhzMAwf8Z+6khr0flK2ElYdKT98Qre+0K2X0Oq7devG23JQRC/esWNHqdHs1Ue3+24Lcv7/pFmChH2LPcZDhw7xWQNHdnY23bx5ky8Hly9f5gdsXdi5vXr1Ep8kur5hBiUsfl70bAfWURIXzPbtZf5eOci+M6G1NWrUiLKysrgy0eqTUza5qnOiI5niMLp0x6I8YWFhtHr1ah7th90MS+w3mFSXLl2i5557jtt+wCWwNdOu9zBzxjaOdEQrxM56nPLYTINZAzao3Og+2XcmpggIEjQaO9smgixKT+ZhGqYE+cwzz9DZs2fpyJEjfBvNz8/PYkMc61W7du0oMjKS1q9fz7XM/MRLFDf7KaYt28bvqmHf0X/6Kq4sIQtt48aN4hXrkS3MDz74QLSIqfu2cb8lrX6ZacDXRE8H4l737dtHX3/9dZWOekuZOnUqPyfWVuynxv7rCa602QLXZm3IqbFuUx6eI7nIEmZsbCzt3r2btxHhpvVqxNtKkvbTV5Tz9x+ip+Ohhx7i9iw0aFuAAK1vv/2WT3/58dF0bcObOieEDWgQpotSwAynn+KtRZYwcQVzHJ3Ib/Q7uraCFGen083P54qeDthkUGyQYGtL8O/o42AzjuyiTBttkvsxcwhODIDYWznIEqbeoQ5XFVxlSpO6fzNJhWVbS7DJ9u41P2pPLs8//zyfBUDSB1OpKCOVt5Wmfg/dDIOgcDlYLUxof4gQAIU349na8iR3USlFUfptSvn2Q9HTxdtgSlfCuDYXKFJYy5ydndk0UWRRLK+5pP2yjWvqAIpkZTtO5mC1MBFNN378eHJycmIKQgHlXY7iPkc4kZO/XUvFOZnindaRe/mMkeIBRatx48aid/eA2TV06FDeTovYTMVZd3hbDgXXrtLNLfPo0qSudOOjmexmiOPjWq2WOnbsyNvWINvOhKMYca/wMWLTVY9G68z9nl79R5FrSCeuiltC0urplPH797x9zz33UFRUFL9w7AFMBwgVjoeGbI3zG/6qeMV8ENeLyD5cENmnfxWjOnBjPP7443zNhIlkLYo52gE8Qe+//z73rhiGUQS8to4a9HpC9KoHmuPF59qVrpfYoe/bty9v24suXbrweCVsDAQv/kGMmgdmrphJ3dldrYtKALgLYV6988479MILL4hRechSgMrz9NNP80Ucd6thYHDqd5YZxAXXrxopPvfdZ/84IIS/ANielpK0aqqRIKEpp6SkcL1DKUECRYWpB/tzO3fuLPXEuARZNnUUGOQ/IgwFDnJ7M3LkSF2DzRqW5MEAp4CyHSQIEEtS/fr1xYhy2ESYAOGH+t0IrZcf/2su+iAp8NZbb4mWfYGXSX9RZf11kP81F9cW94oWW9dsmGphM2HCea3HOSBUtMwD+30AHhgoHmoBSbogL9ayqdbJu+xijovTaa62wGbCVALYd3fTrqwOBKsB1DqwFkRi2ApVCxO7F9D61AJMFDWjamHiKjacru0NohLUjCqF6VhPF62GEi+GIR32JCkpiR9qxmbC5P5MQcG1y6JlHo5euog2TGu2XGMs4ZtvvhEty8k+XxYIjZKqtsJmwjQMxS9MKUuDMwfnxs35X9yZJ06c4G17g/1NPeVrEVVHbsxp0dJFMtoKRYWJuwhGMbaODJOEHFwsi21xbhxEDiI4ed68eTb9AcwBST/nzp0TPSK3Vl1Eyzyyo8p8sajm9fbbb/PAMqWXEMWEiawmxN+0adOGtmzZIkaJtMzGajj0ZdEzH4Q7AsSUIqrOnsyZM4fu3CnbLfHsotvjNBefR8tcdrjgly1bRiEhITyK0DgXRR6yhIkMJ2wPYa8RWV2lVa+YbYgwkpAPD1PoxpNWBRYblj6zZ4YyckcNK29pnF3Js3Mf0TOPxuPnUsj638nniRdLwysBzo2MccQcT548me/KyMHqXRNsSfXs2ZOHWupB8o/3w+OoXveB7I6U57kpycuhSy904g53XMHYiVEqJ8MSVqxYYeRSdO8QRkH/Dhc9y8Gme+aJCEr57iMqvKXb3NcDpfHLL7/kWWTWYPWdiXVEL0ikGQS+8zkFLz9A3gPHyBYkQBiKPkMZEfOYmu422J8t7xtGLT85IPcEv1HI2sPU9PUN5NGlb+ndit9069atvG0NsvYzu3fvzmNNHdkXbPWfk4rnPsJtFvNi91Jf7ffff883ce8GmPIQ/4P/nx631l2pxcJdoqccV17vRwWJMXyXCTMQ9jmtQdaaiWRSUJyRQgU3lHcgwwQIeHk1thp4HxHn+rgjWwKTCJvGhoJkX4L8Rr8t2sqBKReCBEFBQVYLEsgSJmoVcNjNfe1DnWCVBuuveztdIisULGxUG5YXtQUTJ06sUJfId+j00u+hJLcNNu5L90ytRJYwoZhACwPImSgQgUlKgxoHTk10xX9hpsCGhcliC6CVf/HFF6Knw6lRM2ZeTVd8L7KYKXn5sRd4G7/l3LnGMcKWIkuYwDDsIf2oLgBLaZCQ1PTVteTgodudx3qGmCCkkctV5/XAzEJcLuxlQzUC+kDw8giLHR/mkLx1UWl4DKLzsUskB9nC7NSpE7eTAGJ9ioWyojSobtls1hZepx3A+F64cCHPa4TfFJqgNWANhlMgNDS0guvQOaAlBS/bR47uykfPQ7m7c2iH6BG9+qrlEX/lkS1MXE0rV67kbWid2X8d4m1b4N6mK/tx9/OaCXqio6N5IBmmXtho2Mk3tH1NAWMdeZlQ4CBEuAzL4xramf1bEbyWrS3Ii4suLfLYp08fRYLWFAm1xI+DAGXE/UBJCJpXdsXZiri5IyjHYDeiPCiYhLo8KM2CwhlI+4MAkTmGhKeqQP5HQytiYy3h6ut9KT9Rt5uEEFV8V7koIkycAo+f4GlpTEkIXrqXXIPLgphMcefXb6het/5WV/tASZi8K2cpceUUKkq5Lkbl4d6+B/lPWUZOjYOsUnaK7iRT5skD5NmlLzk1DBCjFclPukxXX9PFAcOrhdBUueslUCwIGlomYmRgozV4aDgvl1ae3CtnKGX3Rp6TgikZa1LQgl0WF6gwBG6/7DO/Ueq+TZRz4SQbsey/o2GKjVefkew7DyO3EPOqTpsiLz6a/pn5KA/FRMELlMPxHTKZPDtVzFlFlZRbW3RT+8cff0yTJk3ibbkoJkwAZQjTGR5jEfpxJC8HU1JUyGvGph3YUiHPEnh07E2BszZbVTqmPDCNstiajbp2+QmXeEkZw5KiDkyRcazvS06+/uTSvC3/wT079bZ4f7I8CA39519DqPBGxenbvUMvJtQp5NEhjNcBQsWwK688yOu8A9wESkUgKipMlBqbMGECb6MipYOzC93evYEkdvcYgjsY/la9WYEdEjwkpiaCHJLE5ZOqzYBzDelIfqNm8pyb+Hk6/y7q0qOmnlIoKkyAPU3DKAM9WBOw17l48WIe6o/aAdAm9Ru09XoMoqavrVfcv2tLkKWWuOJFo8dXYQ2EBwlPH8LvUGEDWuvMFtcCXowC1U6Qbq8Usk2T8kARKg/q6eGLI/FGn7OB2gGGDofM4/spcekEPi3XFOLmjTISJLK54XxYunQpf4gA2o89Vq7UDRMkwJKEIG8lUfzOhBGO/wCK6M+ePZvnG1aWV4FMsTFjxhgFS7m0aE/NZ28lLVvb1EpxdgbFsjWy4NoVMaLL4/zjjz94BEF5cIdCl4C/F09bwCyVkJDAZzElUVyYloJwjFGjRvFkGj28DNtLy1VZPBg5ltc3vGlUdBE2NhwWeBRWdUDhgWDNea+l2F2YAOnfKO+NK1v/dRCegYfUuFqYQWZLspgJlLCYLQ3FZUsB7kik51f2wIC7ieJrpjUguwq7IIbVHVEkMOeivFIqSsM1VgNBIuMZJV/UIEigCmHqMfS64M70GaiuJye4t+kuWjqgtaK8m1pQlTDxNAU9bq06i5Z6QP1Yw2eLoZaDmpKJVCNMFDE0jE316jdKtNSDBiGkg8aJnq4I5P79+0XP/qhCAcrMzDQyX/AojNafWLZewvGeeXwfFaXd4i47RAgiwk/rXbZdhopfJTlZ7D03+PtcmRnkfo9loSAFTIu9Mq2spGn//v3pp59+Ej37ogphooK04QPS8HBS/0kLRc88MpnxnrhkvOiZT/M528njXssUGMOyNuDkyZM8UtHe2H2aRf7l2LFjRQ9oLI5NRakZlEOzBtTlsZSGT78mWjrkVNVSErsLE3Vib926JXpErkzxcWlxj+iZR25MVKVFhasj82SEUUEMc0CAlyGorKIGHOfKDQmTCeJvUG5UD8qZZZ36mZy8m/DHR5gDSpfpY08BahDhcU54mgPCQhD2j1QKZGChhDdyYxBsXIrGgTw6holO1UDwKbvW86fj6svBIcICXiB7T7V2XzNRYgw7KKaAGVC/52Cev6IVCbjlKUhOpCtTe4qeDuTBwJFdGUg7RAk3fYo9NslD1hiXQCtP5l8HKf3QDn6hGRac0oPdIARO2xO7CxOOeRjf1WmEDfqOJK8HhzHts4cY0XGb3SXJ4UtFj3gIJsqzVQUi+2Ds88dcCfA4ZPd2xkFVuFCwK5L6wycVknz0oBpKv379eByPLQo1WQSEqQYyMjKkkSNHSj4+Pri4Kj2YqSE1m7VZar3pjNR221VJ6+tv9DoTpDhj1YSHhxt9zjW0k9RuR7zUJjxGCl6+X6ofNsTo9fKHt7c3/75xcXHijPZHNcI0ZNOmTSZ/wPKHa8sOFcaYIS/OUj1snSv9nMbFXQqYtpL/NTxf+cPDw0PasmWLOIO6UKUwQU5OjhQZGSn16NHD5I9q6li9erX4tHlMmDDB5HlMHcOGDZNOnTpl0cVyt1GtMA05d+6c9O6770qenp4mf2gceC07O1t8wjwSExMlrVZr8nw4/P39+QUSHR0tPqFuaoQw9aSnp0vMQJeYiSFpNBqjH54pIVJJSYl4p/kMGjTI6Dz6c23evFliJod4V82gRgnTkBMnTkgjRoyQAgMDpbCwMIvvSj3Hjh2TunXrJjFTRZo0aZLE7E/xSs1DFb7ZOpRBVfuZdcijTpi1iDph1iLqhFmLqBNmrYHov2jG8F7dDEULAAAAAElFTkSuQmCC;" vertex="1" parent="1">
          <mxGeometry x="250" y="463" width="65.09" height="60" as="geometry" />
        </mxCell>
        <mxCell id="YeH8SXlZHnS6lYYfh2XQ-38" value="GASF / GADF&amp;nbsp;&lt;br&gt;Encoding" style="text;html=1;align=center;verticalAlign=middle;resizable=0;points=[];autosize=1;strokeColor=none;fillColor=none;" vertex="1" parent="1">
          <mxGeometry x="231" y="526" width="100" height="40" as="geometry" />
        </mxCell>
        <mxCell id="YeH8SXlZHnS6lYYfh2XQ-39" value="" style="endArrow=classic;html=1;rounded=0;" edge="1" parent="1">
          <mxGeometry width="50" height="50" relative="1" as="geometry">
            <mxPoint x="202.81" y="492.47" as="sourcePoint" />
            <mxPoint x="252.81" y="492.47" as="targetPoint" />
          </mxGeometry>
        </mxCell>
        <mxCell id="YeH8SXlZHnS6lYYfh2XQ-40" value="" style="endArrow=classic;html=1;rounded=0;" edge="1" parent="1">
          <mxGeometry width="50" height="50" relative="1" as="geometry">
            <mxPoint x="310" y="492.47" as="sourcePoint" />
            <mxPoint x="340" y="492" as="targetPoint" />
          </mxGeometry>
        </mxCell>
      </root>
    </mxGraphModel>
  </diagram>
</mxfile>
